<?xml version="1.0" ?><!DOCTYPE svg  PUBLIC '-//W3C//DTD SVG 1.1//EN'  'http://www.w3.org/Graphics/SVG/1.1/DTD/svg11.dtd'><svg enable-background="new 0 0 128 128" id="Слой_1" version="1.1" viewBox="0 0 128 128" xml:space="preserve" xmlns="http://www.w3.org/2000/svg" xmlns:xlink="http://www.w3.org/1999/xlink"><g><circle cx="64" cy="64" fill="#F2F2F2" r="62"/><path d="M107.8,107.8c2.8-2.8,5.2-5.7,7.3-8.8c-2.1-1.5-4.5-2.9-7.3-4.3c-24.2-11.7-63.5-11.7-87.7,0   c-2.8,1.3-5.2,2.8-7.3,4.3c2.1,3.1,4.5,6,7.3,8.8C44.4,132.1,83.6,132.1,107.8,107.8z" fill="#9DD9DF"/><path d="M108.4,93.7c-24.5-11.8-64.3-11.8-88.8,0c-2.7,1.3-5.2,2.8-7.5,4.4c0.5,0.7,0.9,1.4,1.4,2.1c0,0,0,0,0,0   c2.1-1.5,4.5-2.9,7.1-4.2c23.9-11.6,62.7-11.6,86.6,0c2.6,1.3,5,2.7,7.1,4.2c0,0,0,0,0,0c0.5-0.7,1-1.4,1.4-2.1   C113.6,96.4,111.1,95,108.4,93.7z" fill="#62345B"/><g><g opacity="0.2"><path d="M62.7,117.1c4.6,0.7,6.8-2,8.8-4.3L91.8,89c-0.5-0.1-0.9-0.1-1.4-0.1h-4.6L62,112.7     C59.6,115,59.8,117.1,62.7,117.1z" fill="#62345B"/></g><g><path d="M59.7,112.2V16.4h8.5v95.7c0,2.3-1.9,4.3-4.3,4.3h0C61.7,116.4,59.7,114.5,59.7,112.2z" fill="#ED9E77"/></g><g><path d="M64,117.7c-3,0-5.5-2.5-5.5-5.5V16.4c0-0.7,0.6-1.2,1.2-1.2h8.5c0.7,0,1.2,0.6,1.2,1.2v95.7     C69.5,115.2,67,117.7,64,117.7z M61,17.7v94.5c0,1.7,1.3,3,3,3s3-1.3,3-3V17.7H61z" fill="#62345B"/></g><g><path d="M87.9,43.1H43.5c-2.3,0-4.3-1.9-4.3-4.3V26.1c0-2.3,1.9-4.3,4.3-4.3h44.3c1.6,0,3.2,0.5,4.5,1.3l12.6,8     c1.1,0.7,1.1,2.2,0,2.9l-12.6,7.8C91,42.7,89.4,43.1,87.9,43.1z" fill="#F1EE8D"/></g><g><path d="M40.1,68.7h44.4c2.3,0,4.3-1.9,4.3-4.3V51.6c0-2.3-1.9-4.3-4.3-4.3H40.2c-1.6,0-3.2,0.5-4.5,1.3l-12.6,8     c-1.1,0.7-1.1,2.2,0,2.9l12.6,7.8C37,68.2,38.6,68.7,40.1,68.7z" fill="#F1EE8D"/></g><g><path d="M84.5,69.9H40.1c-1.8,0-3.6-0.5-5.1-1.5l-12.6-7.8c-0.9-0.5-1.4-1.5-1.4-2.5c0-1,0.5-2,1.4-2.5l12.6-8     c1.6-1,3.4-1.5,5.2-1.5h44.3c3,0,5.5,2.5,5.5,5.5v12.8C90,67.4,87.5,69.9,84.5,69.9z M40.2,48.6c-1.4,0-2.7,0.4-3.9,1.1l-12.6,8     c-0.2,0.1-0.2,0.3-0.2,0.4s0,0.3,0.2,0.4l12.6,7.8c1.1,0.7,2.5,1.1,3.8,1.1h44.4c1.7,0,3-1.3,3-3V51.6c0-1.7-1.3-3-3-3H40.2z" fill="#62345B"/></g><g><path d="M87.9,44.4H43.5c-3,0-5.5-2.5-5.5-5.5V26.1c0-3,2.5-5.5,5.5-5.5h44.3c1.8,0,3.6,0.5,5.2,1.5l12.6,8     c0.9,0.5,1.4,1.5,1.4,2.5s-0.5,2-1.4,2.5L93,42.9C91.4,43.9,89.7,44.4,87.9,44.4z M43.5,23.1c-1.7,0-3,1.3-3,3v12.8     c0,1.7,1.3,3,3,3h44.4c1.4,0,2.7-0.4,3.8-1.1l12.6-7.8c0.2-0.1,0.2-0.3,0.2-0.4s0-0.3-0.2-0.4l-12.6-8c-1.2-0.7-2.5-1.1-3.9-1.1     H43.5z" fill="#62345B"/></g></g></g></svg>