<?xml version="1.0" ?><svg viewBox="0 0 64 64" xmlns="http://www.w3.org/2000/svg"><g data-name="Layer 13" id="Layer_13"><path d="M54.34,39.66,41.28,28a.47.47,0,0,0-.53-.09.51.51,0,0,0-.3.46v6.17c-6-.08-11.65,3.43-15.13,9.28l2.74-25h6.59a.51.51,0,0,0,.46-.3.49.49,0,0,0-.08-.53L22.7,3.7a.52.52,0,0,0-.76,0L9.61,17.94a.47.47,0,0,0-.07.53.49.49,0,0,0,.45.3h6.6L21.09,60a.5.5,0,0,0,.5.45h1.46a.5.5,0,0,0,.5-.45l.23-2.1c2.82-7.53,9-12.39,15.79-12.39.31,0,.6,0,.88,0v6.14a.51.51,0,0,0,.3.46.47.47,0,0,0,.53-.09L54.34,40.4a.49.49,0,0,0,0-.74ZM22.82,29.88a.5.5,0,0,1-.5.45.51.51,0,0,1-.5-.45L20.17,14.77H18.74a.5.5,0,0,1-.45-.3.49.49,0,0,1,.08-.53l3.57-4.13a.52.52,0,0,1,.76,0l3.58,4.13a.47.47,0,0,1,.07.53.49.49,0,0,1-.45.3H24.47Z"/></g></svg>