<?xml version="1.0" encoding="UTF-8" standalone="no"?>
<svg
   xmlns:dc="http://purl.org/dc/elements/1.1/"
   xmlns:cc="http://creativecommons.org/ns#"
   xmlns:rdf="http://www.w3.org/1999/02/22-rdf-syntax-ns#"
   xmlns:svg="http://www.w3.org/2000/svg"
   xmlns="http://www.w3.org/2000/svg"
   viewBox="0 0 853.33331 853.33331"
   height="853.33331"
   width="853.33331"
   xml:space="preserve"
   id="svg2"
   version="1.1"><metadata
     id="metadata8"><rdf:RDF><cc:Work
         rdf:about=""><dc:format>image/svg+xml</dc:format><dc:type
           rdf:resource="http://purl.org/dc/dcmitype/StillImage" /></cc:Work></rdf:RDF></metadata><defs
     id="defs6" /><g
     transform="matrix(1.3333333,0,0,-1.3333333,0,853.33333)"
     id="g10"><g
       transform="scale(0.1)"
       id="g12"><path
         id="path14"
         style="fill:#1b5065;fill-opacity:1;fill-rule:nonzero;stroke:none"
         d="m 835.352,3876.44 c -5.411,0 -10.899,1.09 -16.153,3.4 -20.281,8.93 -29.511,32.64 -20.566,52.92 10.82,24.54 22.004,48.9 33.555,73.03 9.589,20.02 33.566,28.43 53.554,18.84 19.988,-9.57 28.438,-33.56 18.848,-53.56 -11.192,-23.33 -22.012,-46.9 -32.461,-70.67 -6.641,-15.03 -21.359,-23.96 -36.777,-23.96 z m -78.016,-199.37 c -4.348,0 -8.731,0.71 -13.066,2.18 -20.957,7.21 -32.102,30.05 -24.915,51.03 11.79,34.24 24.415,68.59 37.54,102.06 8.093,20.68 31.433,30.81 52.011,22.74 20.645,-8.07 30.84,-31.36 22.735,-52 -12.703,-32.45 -24.93,-65.71 -36.328,-98.93 -5.735,-16.62 -21.297,-27.08 -37.977,-27.08 z m -85.207,-309.45 c -2.742,0 -5.488,0.26 -8.262,0.86 -21.719,4.52 -35.625,25.8 -31.074,47.49 14.746,70.59 32.695,141.5 53.352,210.77 6.343,21.24 28.66,33.38 49.941,26.99 21.25,-6.33 33.316,-28.69 27,-49.95 -20.02,-67.12 -37.402,-135.83 -51.731,-204.22 -3.945,-18.95 -20.64,-31.94 -39.226,-31.94 z m -54.805,-531.54 c -22.168,0 -40.144,17.98 -40.144,40.15 0,145.11 11.968,290.76 35.562,432.9 3.637,21.88 24.262,36.61 46.196,33 21.843,-3.63 36.628,-24.3 33.003,-46.17 -22.871,-137.8 -34.468,-279.01 -34.468,-419.73 0,-22.17 -17.993,-40.15 -40.149,-40.15" /><path
         id="path16"
         style="fill:#1b5065;fill-opacity:1;fill-rule:nonzero;stroke:none"
         d="M 3200,261.559 C 1753.78,261.559 577.18,1442.6 577.18,2892.6 h 80.293 c 0,-1420 1140.587,-2550.729 2542.527,-2550.729 699.26,0 1351.02,273.938 1835.19,778.749 l 57.97,-53.51 C 4593.66,546.352 3921.34,261.559 3200,261.559" /><path
         id="path18"
         style="fill:#1b5065;fill-opacity:1;fill-rule:nonzero;stroke:none"
         d="m 4872.59,1178.65 379.09,128.64 -78.08,-392.61 z" /><path
         id="path20"
         style="fill:#1b5065;fill-opacity:1;fill-rule:nonzero;stroke:none"
         d="m 5747.74,2409.78 c -2.19,0 -4.39,0.18 -6.65,0.54 -21.84,3.64 -36.64,24.32 -32.99,46.19 22.83,137.69 34.44,278.9 34.44,419.72 0,22.16 17.98,40.15 40.14,40.15 22.16,0 40.14,-17.99 40.14,-40.15 0,-145.21 -11.93,-290.87 -35.53,-432.89 -3.28,-19.63 -20.29,-33.56 -39.55,-33.56 z m -72.3,-312.73 c -3.81,0 -7.66,0.53 -11.48,1.68 -21.26,6.33 -33.33,28.7 -27.01,49.94 20.01,67.12 37.4,135.83 51.72,204.23 4.54,21.75 25.95,35.78 47.49,31.08 21.72,-4.53 35.63,-25.8 31.08,-47.5 -14.75,-70.58 -32.7,-141.49 -53.34,-210.75 -5.21,-17.41 -21.18,-28.68 -38.46,-28.68 z m -69.7,-202.44 c -4.86,0 -9.8,0.88 -14.62,2.74 -20.64,8.08 -30.83,31.36 -22.78,52.01 12.91,32.98 25.15,66.28 36.35,98.95 7.24,20.94 30.06,31.94 51.04,24.91 20.97,-7.21 32.1,-30.06 24.91,-51.04 -11.6,-33.69 -24.22,-68.04 -37.5,-102.03 -6.19,-15.87 -21.35,-25.54 -37.4,-25.54 z m -68.97,-159.81 c -5.75,0 -11.56,1.24 -17.1,3.85 -20.05,9.44 -28.64,33.37 -19.18,53.42 9.35,19.86 18.5,39.86 27.36,60.01 8.97,20.31 32.7,29.45 52.93,20.57 20.31,-8.94 29.51,-32.64 20.57,-52.92 -9.17,-20.78 -18.59,-41.41 -28.25,-61.89 -6.85,-14.54 -21.27,-23.04 -36.33,-23.04" /><path
         id="path22"
         style="fill:#1b5065;fill-opacity:1;fill-rule:nonzero;stroke:none"
         d="m 5822.82,2892.6 h -80.28 c 0,1390 -1140.59,2534.33 -2542.54,2534.33 -698.33,0 -1349.49,-281.45 -1833.54,-785.12 l -57.89,53.56 c 499.31,519.59 1171.04,812.88 1891.43,812.88 1446.22,0 2622.82,-1175.65 2622.82,-2615.65" /><path
         id="path24"
         style="fill:#1b5065;fill-opacity:1;fill-rule:nonzero;stroke:none"
         d="m 1529,4575.41 -379.18,-128.28 78.46,392.54 z" /><path
         id="path26"
         style="fill:#1b5065;fill-opacity:1;fill-rule:nonzero;stroke:none"
         d="m 2981.29,2232.29 c 0,0 -243.04,63.61 -397.69,-103.43 0,0 -125.18,-167.02 36.83,-381.82 0,0 81,-143.2 44.2,-262.51 0,0 -58.92,-190.9 154.62,-182.93 0,0 309.29,7.91 103.1,349.99 0,0 -110.47,167.06 7.38,294.32 0,0 250.39,167.07 51.56,286.38" /><path
         id="path28"
         style="fill:#1b5065;fill-opacity:1;fill-rule:nonzero;stroke:none"
         d="m 3045.54,2503.87 c -46.68,5.92 -91.63,-45.72 -100.44,-115.32 -8.81,-69.62 21.87,-130.82 68.55,-136.74 46.6,-5.88 91.58,45.77 100.36,115.37 8.84,69.63 -21.85,130.81 -68.47,136.69" /><path
         id="path30"
         style="fill:#1b5065;fill-opacity:1;fill-rule:nonzero;stroke:none"
         d="m 2870.63,2288.24 c 31.19,2.7 53.27,42.58 49.3,89.1 -4.03,46.58 -32.52,82.09 -63.7,79.41 -31.18,-2.62 -53.24,-42.52 -49.27,-89.04 3.98,-46.59 32.49,-82.1 63.67,-79.47" /><path
         id="path32"
         style="fill:#1b5065;fill-opacity:1;fill-rule:nonzero;stroke:none"
         d="m 2747.28,2265.07 c 25.76,2.81 43.45,34.7 39.51,71.24 -3.98,36.51 -28.07,63.83 -53.87,61.04 -25.82,-2.78 -43.52,-34.67 -39.54,-71.18 3.97,-36.57 28.07,-63.88 53.9,-61.1" /><path
         id="path34"
         style="fill:#1b5065;fill-opacity:1;fill-rule:nonzero;stroke:none"
         d="m 2667.55,2223.95 c 21.28,6.9 30.29,38.27 20.08,70.09 -10.28,31.87 -35.83,52.04 -57.19,45.25 -21.36,-6.85 -30.32,-38.25 -20.08,-70.07 10.23,-31.87 35.81,-52.09 57.19,-45.27" /><path
         id="path36"
         style="fill:#1b5065;fill-opacity:1;fill-rule:nonzero;stroke:none"
         d="m 2598.82,2180.54 c 16.09,7.97 19.55,33.89 7.67,57.97 -11.86,24.01 -34.49,37.03 -50.62,29.11 -16.12,-7.94 -19.57,-33.87 -7.71,-57.91 11.87,-24.08 34.53,-37.09 50.66,-29.17" /><path
         id="path38"
         style="fill:#1b5065;fill-opacity:1;fill-rule:nonzero;stroke:none"
         d="m 2981.29,3757.81 c 0,0 -243.04,63.62 -397.69,-103.43 0,0 -125.18,-167.03 36.83,-381.82 0,0 81,-143.2 44.2,-262.51 0,0 -58.92,-190.9 154.62,-182.93 0,0 309.29,7.92 103.1,349.99 0,0 -110.47,167.06 7.38,294.33 0,0 250.39,167.06 51.56,286.37" /><path
         id="path40"
         style="fill:#1b5065;fill-opacity:1;fill-rule:nonzero;stroke:none"
         d="m 3045.54,4029.38 c -46.68,5.94 -91.63,-45.71 -100.44,-115.31 -8.81,-69.63 21.87,-130.81 68.55,-136.75 46.6,-5.86 91.58,45.78 100.36,115.38 8.84,69.62 -21.85,130.81 -68.47,136.68" /><path
         id="path42"
         style="fill:#1b5065;fill-opacity:1;fill-rule:nonzero;stroke:none"
         d="m 2870.63,3813.77 c 31.19,2.69 53.27,42.58 49.3,89.09 -4.03,46.57 -32.52,82.09 -63.7,79.41 -31.18,-2.61 -53.24,-42.53 -49.27,-89.03 3.98,-46.59 32.49,-82.12 63.67,-79.47" /><path
         id="path44"
         style="fill:#1b5065;fill-opacity:1;fill-rule:nonzero;stroke:none"
         d="m 2747.28,3790.58 c 25.76,2.82 43.45,34.71 39.51,71.26 -3.98,36.5 -28.07,63.81 -53.87,61.05 -25.82,-2.8 -43.52,-34.69 -39.54,-71.2 3.97,-36.56 28.07,-63.88 53.9,-61.11" /><path
         id="path46"
         style="fill:#1b5065;fill-opacity:1;fill-rule:nonzero;stroke:none"
         d="m 2667.55,3749.47 c 21.28,6.9 30.29,38.25 20.08,70.1 -10.28,31.86 -35.83,52.04 -57.19,45.23 -21.36,-6.84 -30.32,-38.23 -20.08,-70.06 10.23,-31.87 35.81,-52.09 57.19,-45.27" /><path
         id="path48"
         style="fill:#1b5065;fill-opacity:1;fill-rule:nonzero;stroke:none"
         d="m 2598.82,3706.05 c 16.09,7.98 19.55,33.9 7.67,57.98 -11.86,24.02 -34.49,37.03 -50.62,29.11 -16.12,-7.94 -19.57,-33.86 -7.71,-57.92 11.87,-24.07 34.53,-37.09 50.66,-29.17" /><path
         id="path50"
         style="fill:#1b5065;fill-opacity:1;fill-rule:nonzero;stroke:none"
         d="m 3382.74,2730.18 c 0,0 243.02,63.65 397.67,-103.41 0,0 125.19,-167.04 -36.83,-381.84 0,0 -80.99,-143.16 -44.17,-262.48 0,0 58.91,-190.91 -154.66,-182.96 0,0 -309.28,7.93 -103.09,349.99 0,0 110.45,167.06 -7.37,294.35 0,0 -250.39,167.04 -51.55,286.35" /><path
         id="path52"
         style="fill:#1b5065;fill-opacity:1;fill-rule:nonzero;stroke:none"
         d="m 3318.51,3001.8 c 46.65,5.9 91.58,-45.76 100.41,-115.34 8.8,-69.64 -21.88,-130.83 -68.53,-136.75 -46.63,-5.88 -91.58,45.76 -100.42,115.36 -8.78,69.63 21.91,130.82 68.54,136.73" /><path
         id="path54"
         style="fill:#1b5065;fill-opacity:1;fill-rule:nonzero;stroke:none"
         d="m 3493.36,2786.16 c -31.16,2.67 -53.21,42.56 -49.24,89.1 3.97,46.56 32.45,82.07 63.66,79.41 31.2,-2.64 53.26,-42.53 49.24,-89.05 -3.97,-46.58 -32.46,-82.12 -63.66,-79.46" /><path
         id="path56"
         style="fill:#1b5065;fill-opacity:1;fill-rule:nonzero;stroke:none"
         d="m 3616.77,2762.96 c -25.79,2.82 -43.49,34.71 -39.54,71.24 3.94,36.54 28.06,63.86 53.86,61.06 25.82,-2.78 43.49,-34.65 39.52,-71.18 -3.92,-36.56 -28.04,-63.87 -53.84,-61.12" /><path
         id="path58"
         style="fill:#1b5065;fill-opacity:1;fill-rule:nonzero;stroke:none"
         d="m 3696.48,2721.87 c -21.32,6.88 -30.32,38.24 -20.09,70.09 10.27,31.85 35.83,52.04 57.18,45.22 21.35,-6.85 30.35,-38.23 20.07,-70.04 -10.21,-31.89 -35.8,-52.09 -57.16,-45.27" /><path
         id="path60"
         style="fill:#1b5065;fill-opacity:1;fill-rule:nonzero;stroke:none"
         d="m 3765.2,2678.46 c -16.13,7.95 -19.57,33.9 -7.71,57.95 11.87,24.04 34.55,37.03 50.64,29.11 16.14,-7.92 19.57,-33.88 7.72,-57.89 -11.89,-24.08 -34.52,-37.12 -50.65,-29.17" /><path
         id="path62"
         style="fill:#1b5065;fill-opacity:1;fill-rule:nonzero;stroke:none"
         d="m 3382.74,4175.42 c 0,0 243.02,63.63 397.67,-103.43 0,0 125.19,-167.04 -36.83,-381.82 0,0 -80.99,-143.18 -44.17,-262.49 0,0 58.91,-190.89 -154.66,-182.95 0,0 -309.28,7.92 -103.09,349.99 0,0 110.45,167.06 -7.37,294.34 0,0 -250.39,167.04 -51.55,286.36" /><path
         id="path64"
         style="fill:#1b5065;fill-opacity:1;fill-rule:nonzero;stroke:none"
         d="m 3318.51,4447.02 c 46.65,5.91 91.58,-45.73 100.41,-115.34 8.8,-69.63 -21.88,-130.81 -68.53,-136.74 -46.63,-5.89 -91.58,45.75 -100.42,115.36 -8.78,69.62 21.91,130.81 68.54,136.72" /><path
         id="path66"
         style="fill:#1b5065;fill-opacity:1;fill-rule:nonzero;stroke:none"
         d="m 3493.36,4231.4 c -31.16,2.66 -53.21,42.55 -49.24,89.1 3.97,46.54 32.45,82.06 63.66,79.39 31.2,-2.63 53.26,-42.52 49.24,-89.04 -3.97,-46.57 -32.46,-82.12 -63.66,-79.45" /><path
         id="path68"
         style="fill:#1b5065;fill-opacity:1;fill-rule:nonzero;stroke:none"
         d="m 3616.77,4208.18 c -25.79,2.84 -43.49,34.72 -39.54,71.25 3.94,36.55 28.06,63.86 53.86,61.06 25.82,-2.78 43.49,-34.66 39.52,-71.16 -3.92,-36.58 -28.04,-63.89 -53.84,-61.15" /><path
         id="path70"
         style="fill:#1b5065;fill-opacity:1;fill-rule:nonzero;stroke:none"
         d="m 3696.48,4167.1 c -21.32,6.87 -30.32,38.23 -20.09,70.1 10.27,31.83 35.83,52.03 57.18,45.21 21.35,-6.84 30.35,-38.23 20.07,-70.04 -10.21,-31.89 -35.8,-52.09 -57.16,-45.27" /><path
         id="path72"
         style="fill:#1b5065;fill-opacity:1;fill-rule:nonzero;stroke:none"
         d="m 3765.2,4123.69 c -16.13,7.94 -19.57,33.9 -7.71,57.94 11.87,24.04 34.55,37.04 50.64,29.12 16.14,-7.92 19.57,-33.88 7.72,-57.89 -11.89,-24.08 -34.52,-37.12 -50.65,-29.17" /></g></g></svg>