<?xml version="1.0" encoding="UTF-8"?>
<svg id="_레이어_2" data-name="레이어 2" xmlns="http://www.w3.org/2000/svg" viewBox="0 0 143 66.31">
  <g id="_레이어_1-2" data-name="레이어 1">
    <g>
      <g>
        <path class="cls-1" d="m52.65,9.75v6.11h11.56v4.18h-11.56v10.25h-4.31V5.68h17.5v4.07h-13.18Z"/>
        <path class="cls-1" d="m85.45,6.07c1.42.61,2.62,1.48,3.61,2.61,1.01,1.13,1.79,2.48,2.33,4.06.54,1.58.81,3.33.81,5.26s-.27,3.77-.81,5.37c-.54,1.6-1.32,2.96-2.33,4.09-.99,1.13-2.19,2-3.61,2.61s-3,.91-4.75.91-3.36-.31-4.78-.91-2.62-1.48-3.61-2.61c-.99-1.13-1.75-2.49-2.28-4.09-.53-1.6-.79-3.39-.79-5.37s.26-3.69.79-5.26c.53-1.58,1.29-2.93,2.28-4.06.99-1.13,2.19-2,3.61-2.61,1.42-.61,3.01-.91,4.78-.91s3.33.31,4.75.91Zm.28,18.41c1.21-1.63,1.81-3.8,1.81-6.49s-.6-4.71-1.81-6.33-2.88-2.43-5.02-2.43-3.88.81-5.07,2.43-1.79,3.73-1.79,6.33.6,4.85,1.79,6.49c1.2,1.63,2.89,2.45,5.07,2.45s3.81-.82,5.02-2.45Z"/>
        <path class="cls-1" d="m112.86,6.07c1.42.61,2.62,1.48,3.61,2.61,1.01,1.13,1.79,2.48,2.33,4.06.54,1.58.81,3.33.81,5.26s-.27,3.77-.81,5.37c-.54,1.6-1.32,2.96-2.33,4.09-.99,1.13-2.19,2-3.61,2.61s-3,.91-4.75.91-3.36-.31-4.78-.91-2.62-1.48-3.61-2.61c-.99-1.13-1.75-2.49-2.28-4.09-.53-1.6-.79-3.39-.79-5.37s.26-3.69.79-5.26c.53-1.58,1.29-2.93,2.28-4.06.99-1.13,2.19-2,3.61-2.61,1.42-.61,3.01-.91,4.78-.91s3.33.31,4.75.91Zm.28,18.41c1.21-1.63,1.81-3.8,1.81-6.49s-.6-4.71-1.81-6.33-2.88-2.43-5.02-2.43-3.88.81-5.07,2.43-1.79,3.73-1.79,6.33.6,4.85,1.79,6.49c1.2,1.63,2.89,2.45,5.07,2.45s3.81-.82,5.02-2.45Z"/>
        <path class="cls-1" d="m135.17,9.75v20.54h-4.38V9.75h-7.73v-4.07h19.91v4.07h-7.8Z"/>
        <path class="cls-1" d="m65.59,54.86c.81,1.24,1.1,2.61.9,4.11-.14.99-.44,1.92-.92,2.8-.47.88-1.1,1.65-1.88,2.31-.81.67-1.78,1.19-2.93,1.57-1.15.38-2.48.57-4,.57-1.68,0-3.14-.28-4.38-.83-1.24-.55-2.28-1.29-3.11-2.21-.81-.92-1.42-1.98-1.83-3.17s-.63-2.44-.66-3.73h4.56c.07,2.02.61,3.51,1.62,4.45,1.01.94,2.3,1.42,3.87,1.42s2.7-.32,3.49-.97c.78-.64,1.28-1.47,1.48-2.48.14-.76.01-1.36-.38-1.81s-.97-.86-1.73-1.23c-.53-.23-1.08-.4-1.64-.52-.56-.11-1.15-.22-1.74-.31-.58-.09-1.16-.19-1.76-.29-.6-.1-1.2-.28-1.79-.54-1.75-.69-3.05-1.53-3.92-2.52-.86-.99-1.27-2.38-1.23-4.18,0-.85.19-1.72.59-2.61.39-.89.97-1.67,1.73-2.36.74-.71,1.66-1.29,2.78-1.74,1.12-.45,2.42-.67,3.92-.67,1.75,0,3.21.3,4.38.9,1.17.6,2.12,1.35,2.83,2.24.71.87,1.22,1.83,1.52,2.86.3,1.04.45,1.98.45,2.83h-4.52c0-1.45-.38-2.62-1.14-3.5-.76-.89-1.93-1.33-3.52-1.33-1.45,0-2.53.36-3.23,1.07-.7.71-1.05,1.48-1.05,2.31,0,.87.25,1.5.76,1.88.51.38,1.07.65,1.69.81.41.18.9.33,1.47.45.56.12,1.18.23,1.85.35.64.14,1.31.3,2,.48.69.18,1.37.41,2.04.69,1.5.69,2.65,1.66,3.45,2.9Z"/>
        <path class="cls-1" d="m83.95,44.75v20.54h-4.38v-20.54h-7.73v-4.07h19.91v4.07h-7.8Z"/>
        <path class="cls-1" d="m98.69,65.28v-24.61h17.6v4.07h-13.29v5.8h12.7v4.07h-12.7v6.66h13.53v4h-17.84Z"/>
        <path class="cls-1" d="m137.78,41.19c1.05.37,1.96.89,2.74,1.55.76.67,1.36,1.47,1.81,2.42.45.94.67,2,.67,3.18s-.22,2.2-.67,3.14c-.45.94-1.05,1.76-1.81,2.45-.78.67-1.7,1.19-2.74,1.57-1.05.38-2.18.57-3.4.57h-5.87v9.21h-4.31v-24.64h10.18c1.22,0,2.35.18,3.4.55Zm-.6,9.96c.85-.56,1.28-1.5,1.28-2.81s-.43-2.24-1.28-2.78c-.85-.54-1.78-.81-2.8-.81h-5.87v7.25h5.87c1.01,0,1.94-.28,2.8-.85Z"/>
      </g>
      <g>
        <g>
          <path class="cls-1" d="m2.65,22.32l10.77-1.78S18.66,10.15,10.06.99C10.06.99,2.65-4.01.23,8.45c0,0-1.33,6.88,2.42,13.87Z"/>
          <path class="cls-1" d="m3.75,26.83l10.41-1.64s2.67,8.99-1.5,10.88c0,0-6.17,2.48-7.97-2.18-.01-.03-1.1-2.79-.94-7.07Z"/>
        </g>
        <g>
          <path class="cls-1" d="m32.12,53.06l-10.33-3.52s-3.47-11.1,6.5-18.73c0,0,8.13-3.72,8.48,8.96,0,0,.19,7.01-4.65,13.29Z"/>
          <path class="cls-1" d="m30.3,57.33l-10-3.32s-4.1,8.44-.3,10.98c0,0,5.68,3.45,8.22-.84.02-.03,1.54-2.57,2.08-6.82Z"/>
        </g>
      </g>
    </g>
  </g>
</svg>